<svg xmlns="http://www.w3.org/2000/svg" viewBox="0 0 604.02 215.6"><defs><style>.cls-1{fill:#231f20;}.cls-2{fill:#d52027;}</style></defs><title>Asset 1@512x </title><g id="Layer_2" data-name="Layer 2"><g id="Layer_2-2" data-name="Layer 2"><path class="cls-1" d="M239.8,173.15v3.68h-7.17v6.6h-4.5V165.56h13.3v3.67h-8.8v3.92Z"/><path class="cls-1" d="M243.65,174.48c0-5.38,3.18-9.33,8.85-9.33s8.85,3.95,8.85,9.33-3.22,9.35-8.85,9.35S243.65,179.88,243.65,174.48Zm13.2,0c0-3.1-1.1-5.65-4.35-5.65s-4.35,2.55-4.35,5.65,1.08,5.67,4.35,5.67S256.85,177.6,256.85,174.48Z"/><path class="cls-1" d="M272.13,183.83c-5.4,0-7.48-2.4-7.48-6.85V165.56h4.5V177c0,2.32,1,3.17,3,3.17s3-.85,3-3.17V165.56h4.5V177C279.6,181.43,277.53,183.83,272.13,183.83Z"/><path class="cls-1" d="M283.63,165.56h4.5l6.24,10.62h.06V165.56h4.49v17.87h-4.49l-6.25-10.63h-.05v10.63h-4.5Z"/><path class="cls-1" d="M303.08,165.56H311c5,0,8,3.19,8,8.94s-2.75,8.93-7.72,8.93h-8.17Zm4.5,14.19h3c2.8,0,3.93-2,3.93-5.25s-1.13-5.27-3.93-5.27h-3Z"/><path class="cls-1" d="M325.68,179.7l-1.15,3.73H320l6.47-17.87H331l6.45,17.87H333l-1.15-3.73Zm5.12-3.42-2-6.6h0l-2,6.6Z"/><path class="cls-1" d="M342.55,169.23h-5.2v-3.67h14.87v3.67h-5.17v14.2h-4.5Z"/><path class="cls-1" d="M360.1,165.56v17.87h-4.5V165.56Z"/><path class="cls-1" d="M363.65,174.48c0-5.38,3.18-9.33,8.85-9.33s8.85,3.95,8.85,9.33-3.23,9.35-8.85,9.35S363.65,179.88,363.65,174.48Zm13.2,0c0-3.1-1.1-5.65-4.35-5.65s-4.35,2.55-4.35,5.65,1.08,5.67,4.35,5.67S376.85,177.6,376.85,174.48Z"/><path class="cls-1" d="M384.78,165.56h4.5l6.24,10.62h.05V165.56h4.5v17.87h-4.5l-6.24-10.63h-.05v10.63h-4.5Z"/><path class="cls-1" d="M418.85,178.18c0,3.42-2.6,5.65-7.08,5.65-4.64,0-8.14-2.3-8.14-6.28h4.5c0,1.9,1.65,2.6,3.64,2.6,1.68,0,2.58-.65,2.58-1.55,0-1.42-1.93-1.75-4.45-2.5-3.07-.9-5.77-2.22-5.77-5.52,0-3.9,3.05-5.43,6.9-5.43,4.17,0,7.44,2.2,7.57,5.83h-4.5c-.2-1.35-1.35-2.15-3.07-2.15-1.35,0-2.4.42-2.4,1.42s1.12,1.45,3.37,2.08C415.37,173.25,418.85,174.35,418.85,178.18Z"/><path class="cls-1" d="M436.05,168.83c-3,0-4,2.3-4,5.65s1,5.67,4,5.67c2.4,0,3.3-1.42,3.6-3.42h4.5c-.4,4.2-3,7.1-7.9,7.1-5.65,0-8.67-4-8.67-9.35s3-9.33,8.67-9.33c4.87,0,7.47,2.9,7.9,7h-4.5C439.32,170.25,438.42,168.83,436.05,168.83Z"/><path class="cls-1" d="M451.92,165.56v7h6.13v-7h4.5v17.87h-4.5v-7.2h-6.13v7.2h-4.49V165.56Z"/><path class="cls-1" d="M479,172.4v3.68h-7.8v3.67h9.2v3.68H466.7V165.56h13.55v3.67H471.2v3.17Z"/><path class="cls-1" d="M484.1,165.56h4.5l6.25,10.62h0V165.56h4.5v17.87h-4.5l-6.25-10.63h0v10.63h-4.5Z"/><path class="cls-1" d="M503.55,165.56h4.5l6.25,10.62h.05V165.56h4.5v17.87h-4.5L508.1,172.8h-.05v10.63h-4.5Z"/><path class="cls-1" d="M527.15,179.7,526,183.43h-4.5L528,165.56h4.5l6.45,17.87h-4.5l-1.15-3.73Zm5.12-3.42-2-6.6h0l-2,6.6Z"/><path class="cls-1" d="M546.4,165.56v17.87h-4.5V165.56Z"/><path class="cls-1" d="M561,165.56v14.19h8v3.68H556.5V165.56Z"/><path class="cls-1" d="M576.82,165.56v14.19h7.95v3.68H572.32V165.56Z"/><path class="cls-1" d="M588.15,165.56h8.67c3.73,0,6,1.94,6,5.69s-2.32,5.7-6,5.7h-4.17v6.48h-4.5Zm4.5,7.72h3.22c1.55,0,2.5-.53,2.5-2s-1-2-2.5-2h-3.22Z"/><path class="cls-2" d="M252.1,155.79H230.27V85.3h22.36q16.65,0,26,8.69Q289.94,104.6,290,121a35.55,35.55,0,0,1-9.12,24.59q-9.12,10.19-22.05,10.18H255.6V136h1.27q4.56,0,7.53-4.35a18.72,18.72,0,0,0,3-10.81q0-7.22-3.71-11.5a12.5,12.5,0,0,0-10-4.3H252.1Z"/><path class="cls-2" d="M353.23,105.76h19.39V135q0,11-5.77,16.8t-15.21,5.78a20.41,20.41,0,0,1-15.16-6.25q-7.53,6.25-15.8,6.25-10.06,0-16.32-6.47-5.3-5.4-5.3-14.73V105.76h19.4v27.56q0,5.61,3.92,5.61c2.54,0,3.82-2,3.82-5.93V105.76h19.39V133c0,4,1.31,5.93,3.93,5.93a3.26,3.26,0,0,0,3.6-3,34,34,0,0,0,.11-3.4Z"/><path class="cls-2" d="M436.75,155.79H417.36V133.32c0-3.11-.5-5.45-1.49-7a6.77,6.77,0,0,0-6.15-3.18,7.22,7.22,0,0,0-5.24,2.12,7,7,0,0,0-2.18,5.19,7.16,7.16,0,0,0,2.07,5.2,7,7,0,0,0,5.25,2.12,10.36,10.36,0,0,0,4.66-1.06v19.08a12.24,12.24,0,0,1-7,1.8,23.45,23.45,0,0,1-17.65-7.79,27.67,27.67,0,0,1,.58-38.21,26.84,26.84,0,0,1,19.61-7.85q11.76,0,19.34,8t7.58,20.25Z"/><path class="cls-2" d="M467.07,155.79h-19.4v-50h18.55v6.46q5.73-7.74,14.42-7.74h3.28v18.13c-1.69-.14-2.65-.21-2.86-.21q-7.74,0-11.23,4.87-2.76,3.83-2.76,11.56Z"/><path class="cls-2" d="M544.45,155.79h-19.4V133.32c0-3.11-.5-5.45-1.48-7a6.79,6.79,0,0,0-6.15-3.18,7.26,7.26,0,0,0-5.25,2.12,7,7,0,0,0-2.17,5.19,7.19,7.19,0,0,0,2.06,5.2,7,7,0,0,0,5.25,2.12,10.4,10.4,0,0,0,4.67-1.06v19.08a12.25,12.25,0,0,1-7,1.8,23.45,23.45,0,0,1-17.65-7.79A26.43,26.43,0,0,1,490,131a26.16,26.16,0,0,1,8-19.39,26.84,26.84,0,0,1,19.61-7.85q11.78,0,19.35,8t7.58,20.25Z"/><path class="cls-2" d="M603,155.79h-19.4v-11q0-8.37-5.72-8.37h-2.76v19.4h-19.4V85.3h19.4v35.51h1.7q1.8,0,3-3.61l3.81-11.44H604l-5.19,13.56a13.64,13.64,0,0,1-6.68,7.64q5.51,2.33,8,5.72,2.85,4,2.86,11.77Z"/><path class="cls-1" d="M154.09,0,0,138.64H50.81v76h59.87c.36-1.06-9.31-5.85-17.28-17.83-4-6-8.2-12.34-10.55-22.22a59,59,0,0,1-.34-25.87c5-23.2,23.23-35.8,28.85-39.32a68.23,68.23,0,0,1,37.36-10.13V53.36s1.79-6.76,12.83-7.08,44.68,0,44.68,0Z"/><path class="cls-1" d="M225.13,75.85V54.55H160c-3.17,0-3.1,1.6-3.1,1.6v4.08l.59,62.88v42.15s-.34,11.23-12.68,11.06-13.11-13.53-13.11-13.53c.33-6.79,4.73-12.36,10.49-13.73s10.72,2.2,11.43,2.75V110.7a7.51,7.51,0,0,0-5-2.35c-1.65-.16-3.31-.24-5-.24a53.75,53.75,0,1,0,53.74,53.74c0-.19,0-.38,0-.57h.12V106h22.43v-20H197.6V75.85Z"/></g></g></svg>